# xmcd
#
# Track frame offsets:
#	150
#	16330
#	42903
#	61891
#	77997
#	105575
#	125835
#	146460
#	174187
#	194645
#	221899
#	242667
#	263904
#	281073
#
# Disc length: 4034 seconds
#
# Revision: 0
# Processed by: cddbd v1.5.2PL0 Copyright (c) Steve Scherf et al.
# Submitted via: EZCDAudioConverter 1.3.4.1
#
DISCID=d10fc00e
DTITLE=Various Artist - The Space Project
DYEAR=2014
DGENRE=
TTITLE0=Porcelain Raft - Giove
TTITLE1=The Antlers - Jupiter
TTITLE2=Mutual Benefit - Terraform
TTITLE3=Anna Meredith - Miranda
TTITLE4=Spiritualized ''Mississippi Space Program'' - Always Together With You
TTITLE4=(The Bridge Song)
TTITLE5=Holydrug Couple - Amphitrites Lost
TTITLE6=Youth Lagoon - Worms
TTITLE7=Blues Control - Blues Danube
TTITLE8=Beach House - Saturn Song
TTITLE9=Zomes - Moonlet
TTITLE10=Absolutely Free - Earth I
TTITLE11=Jesu - Song Of Earth
TTITLE12=Benoit and Sergio - Long Neglected Words
TTITLE13=Larry Gus - Sphere Of Io (For Georg Cantor)
EXTD=
EXTT0=
EXTT1=
EXTT2=
EXTT3=
EXTT4=
EXTT5=
EXTT6=
EXTT7=
EXTT8=
EXTT9=
EXTT10=
EXTT11=
EXTT12=
EXTT13=
PLAYORDER=
